<mxfile host="Electron" modified="2023-04-17T21:41:47.294Z" agent="Mozilla/5.0 (Macintosh; Intel Mac OS X 10_15_7) AppleWebKit/537.36 (KHTML, like Gecko) draw.io/21.1.2 Chrome/106.0.5249.199 Electron/21.4.3 Safari/537.36" etag="FoF4FvUR-4_4MdcJX3IZ" version="21.1.2" type="device">
  <diagram name="Page-1" id="FvLJSc5cekAWAvqjR6wY">
    <mxGraphModel dx="1114" dy="823" grid="1" gridSize="10" guides="1" tooltips="1" connect="1" arrows="1" fold="1" page="1" pageScale="1" pageWidth="1169" pageHeight="827" math="0" shadow="0">
      <root>
        <mxCell id="0" />
        <mxCell id="1" parent="0" />
        <mxCell id="obRNbhQuBIRgTvjJq404-11" style="edgeStyle=none;rounded=0;orthogonalLoop=1;jettySize=auto;html=1;exitX=0;exitY=1;exitDx=0;exitDy=0;entryX=1;entryY=0;entryDx=0;entryDy=0;startArrow=classic;startFill=1;" edge="1" parent="1" source="obRNbhQuBIRgTvjJq404-1" target="obRNbhQuBIRgTvjJq404-4">
          <mxGeometry relative="1" as="geometry" />
        </mxCell>
        <mxCell id="obRNbhQuBIRgTvjJq404-12" value="&lt;font style=&quot;font-size: 14px;&quot;&gt;Request Access Token + Refresh Token&lt;/font&gt;" style="edgeLabel;html=1;align=center;verticalAlign=middle;resizable=0;points=[];" vertex="1" connectable="0" parent="obRNbhQuBIRgTvjJq404-11">
          <mxGeometry x="-0.0259" y="-2" relative="1" as="geometry">
            <mxPoint as="offset" />
          </mxGeometry>
        </mxCell>
        <mxCell id="obRNbhQuBIRgTvjJq404-1" value="&lt;font style=&quot;font-size: 16px;&quot;&gt;&lt;b&gt;Authorization Server&lt;/b&gt;&lt;/font&gt;" style="rounded=1;whiteSpace=wrap;html=1;fillColor=#d5e8d4;strokeColor=#82b366;" vertex="1" parent="1">
          <mxGeometry x="610" y="120" width="200" height="100" as="geometry" />
        </mxCell>
        <mxCell id="obRNbhQuBIRgTvjJq404-5" style="edgeStyle=orthogonalEdgeStyle;rounded=0;orthogonalLoop=1;jettySize=auto;html=1;entryX=0.5;entryY=0;entryDx=0;entryDy=0;" edge="1" parent="1" source="obRNbhQuBIRgTvjJq404-2" target="obRNbhQuBIRgTvjJq404-4">
          <mxGeometry relative="1" as="geometry" />
        </mxCell>
        <mxCell id="obRNbhQuBIRgTvjJq404-15" value="&lt;font style=&quot;font-size: 14px;&quot;&gt;Wants to Use&lt;/font&gt;" style="edgeLabel;html=1;align=center;verticalAlign=middle;resizable=0;points=[];" vertex="1" connectable="0" parent="obRNbhQuBIRgTvjJq404-5">
          <mxGeometry x="-0.025" y="1" relative="1" as="geometry">
            <mxPoint as="offset" />
          </mxGeometry>
        </mxCell>
        <mxCell id="obRNbhQuBIRgTvjJq404-6" style="edgeStyle=orthogonalEdgeStyle;rounded=0;orthogonalLoop=1;jettySize=auto;html=1;entryX=0;entryY=0.5;entryDx=0;entryDy=0;" edge="1" parent="1" source="obRNbhQuBIRgTvjJq404-2" target="obRNbhQuBIRgTvjJq404-1">
          <mxGeometry relative="1" as="geometry" />
        </mxCell>
        <mxCell id="obRNbhQuBIRgTvjJq404-16" value="&lt;font style=&quot;font-size: 14px;&quot;&gt;Grant Authorization to Client&lt;/font&gt;" style="edgeLabel;html=1;align=center;verticalAlign=middle;resizable=0;points=[];" vertex="1" connectable="0" parent="obRNbhQuBIRgTvjJq404-6">
          <mxGeometry x="-0.2738" relative="1" as="geometry">
            <mxPoint x="37" as="offset" />
          </mxGeometry>
        </mxCell>
        <mxCell id="obRNbhQuBIRgTvjJq404-2" value="&lt;font style=&quot;font-size: 16px;&quot;&gt;&lt;b&gt;Resource Owner&lt;/b&gt;&lt;/font&gt;" style="shape=umlActor;verticalLabelPosition=top;verticalAlign=bottom;html=1;outlineConnect=0;labelPosition=center;align=center;" vertex="1" parent="1">
          <mxGeometry x="156" y="120" width="50" height="100" as="geometry" />
        </mxCell>
        <mxCell id="obRNbhQuBIRgTvjJq404-8" style="edgeStyle=orthogonalEdgeStyle;rounded=0;orthogonalLoop=1;jettySize=auto;html=1;entryX=0.5;entryY=1;entryDx=0;entryDy=0;" edge="1" parent="1" source="obRNbhQuBIRgTvjJq404-3" target="obRNbhQuBIRgTvjJq404-1">
          <mxGeometry relative="1" as="geometry" />
        </mxCell>
        <mxCell id="obRNbhQuBIRgTvjJq404-14" value="&lt;font style=&quot;font-size: 14px;&quot;&gt;Validate Access Token&lt;/font&gt;" style="edgeLabel;html=1;align=center;verticalAlign=middle;resizable=0;points=[];" vertex="1" connectable="0" parent="obRNbhQuBIRgTvjJq404-8">
          <mxGeometry x="0.0375" y="-1" relative="1" as="geometry">
            <mxPoint as="offset" />
          </mxGeometry>
        </mxCell>
        <mxCell id="obRNbhQuBIRgTvjJq404-3" value="&lt;font style=&quot;font-size: 16px;&quot;&gt;&lt;b&gt;Resource Server&lt;/b&gt;&lt;/font&gt;" style="rounded=1;whiteSpace=wrap;html=1;fillColor=#ffe6cc;strokeColor=#d79b00;" vertex="1" parent="1">
          <mxGeometry x="610" y="380" width="200" height="100" as="geometry" />
        </mxCell>
        <mxCell id="obRNbhQuBIRgTvjJq404-7" style="edgeStyle=orthogonalEdgeStyle;rounded=0;orthogonalLoop=1;jettySize=auto;html=1;entryX=0;entryY=0.5;entryDx=0;entryDy=0;" edge="1" parent="1" source="obRNbhQuBIRgTvjJq404-4" target="obRNbhQuBIRgTvjJq404-3">
          <mxGeometry relative="1" as="geometry" />
        </mxCell>
        <mxCell id="obRNbhQuBIRgTvjJq404-13" value="&lt;font style=&quot;font-size: 14px;&quot;&gt;Call with Access Token&lt;/font&gt;" style="edgeLabel;html=1;align=center;verticalAlign=middle;resizable=0;points=[];" vertex="1" connectable="0" parent="obRNbhQuBIRgTvjJq404-7">
          <mxGeometry x="-0.16" relative="1" as="geometry">
            <mxPoint x="25" as="offset" />
          </mxGeometry>
        </mxCell>
        <mxCell id="obRNbhQuBIRgTvjJq404-4" value="&lt;font style=&quot;font-size: 16px;&quot;&gt;&lt;b&gt;Client&lt;/b&gt;&lt;/font&gt;" style="rounded=1;whiteSpace=wrap;html=1;fillColor=#dae8fc;strokeColor=#6c8ebf;" vertex="1" parent="1">
          <mxGeometry x="81" y="380" width="200" height="100" as="geometry" />
        </mxCell>
      </root>
    </mxGraphModel>
  </diagram>
</mxfile>
